<?xml version="1.0" standalone="no"?>
<!DOCTYPE svg PUBLIC "-//W3C//DTD SVG 1.1//EN" "http://www.w3.org/Graphics/SVG/1.1/DTD/svg11.dtd" >
<svg xmlns="http://www.w3.org/2000/svg">
<metadata>Generated by IcoMoon</metadata>
<defs>
<font id="icomoon" horiz-adv-x="1024">
<font-face units-per-em="1024" ascent="960" descent="-64" />
<missing-glyph horiz-adv-x="1024" />
<glyph unicode="&#x20;" horiz-adv-x="0" d="" />
<glyph unicode="&#xe02c;" glyph-name="night" d="M512 448q0 200 150 334 102 90 234 108-122 70-256 70-222 0-374-164-138-148-138-348 0-222 164-374 148-138 348-138 136 2 256 70-192 26-304 186-80 116-80 256zM640 0q-202 0-336 152-112 128-112 296 0 200 148 334 130 114 300 114 24 0 66-4-180-104-238-300-20-72-20-144 0-218 160-370 46-44 98-74-44-4-66-4z" />
<glyph unicode="&#xe035;" glyph-name="day" d="M256 448h-192v-64h192v64zM576 896h-64v-192h64v192zM182 100l46-46 90 90-46 46zM906 732l-46 46-90-90 46-46zM832 448v-64h192v64h-192zM544 640q-120 0-186-98-38-58-38-126 0-120 98-186 58-38 126-38 120 0 186 98 38 58 38 126 0 120-98 186-58 38-126 38zM544 256q-90 0-138 78-22 40-22 82 0 90 78 138 40 22 82 22 90 0 138-78 22-40 22-82 0-90-78-138-40-22-82-22zM770 144l90-90 46 46-90 90zM512-64h64v192h-64v-192zM182 732l90-90 46 46-90 90z" />
<glyph unicode="&#xe051;" glyph-name="page-last" d="M536 438v2h-2l-382 350q-22 20-46 0-18-22 0-46l358-328-358-328q-16-22 0-46 24-18 48 0l382 350q18 24 0 46zM920 438l-2 2-318 286q-22 20-46 0-22-22 0-46l292-264-292-264q-16-22 0-46 24-18 48 0l318 286q18 24 0 46z" />
<glyph unicode="&#xe052;" glyph-name="page-first" d="M178 416l358 328q18 24 0 46-24 20-48 0l-382-350v-2q-22-22 0-46l382-350q22-20 46 0 20 22 0 46zM562 416l294 264q18 24 0 46-24 20-48 0l-318-286v-2q-22-22 0-46l318-286q22-20 46 0 16 22 0 46z" />
<glyph unicode="&#xe095;" glyph-name="phone" d="M512 64q48 0 62 44 2 12 2 20 0 48-44 62-12 2-20 2-48 0-62-44-2-12-2-20 0-48 44-62 12-2 20-2zM704 960h-384q-78 0-114-70-14-28-14-58v-768q0-78 70-114 28-14 58-14h384q78 0 114 70 14 28 14 58v768q0 78-70 114-28 14-58 14zM768 64q0-48-44-62-12-2-20-2h-384q-48 0-62 44-2 12-2 20v192h512v-192zM768 320h-512v384h512v-384zM768 768h-512v64q0 48 44 62 12 2 20 2h384q48 0 62-44 2-12 2-20v-64z" />
<glyph unicode="&#xe099;" glyph-name="search" d="M448 960q-202 0-336-152-112-128-112-296 0-202 152-336 128-112 296-112 202 0 336 152 112 128 112 296 0 202-152 336-128 112-296 112zM448 128q-180 0-294 138-90 108-90 246 0 180 138 294 108 90 246 90 180 0 294-138 90-108 90-246 0-180-138-294-108-90-246-90zM1014-8l-182 182q-22-26-46-46l182-182q22-16 46 0 16 22 0 46z" />
<glyph unicode="&#xe0a7;" glyph-name="delete" d="M320 160h64v384h-64v-384zM992 832h-288v96q-4 30-32 32h-256q-30-4-32-32v-96h-288q-30-4-32-32 4-30 32-32h32v-768q0-48 44-62 12-2 20-2h704q48 0 62 44 2 12 2 20v768h32q30 4 32 32-4 30-32 32zM448 896h192v-64h-192v64zM896 736v-704q-4-30-32-32h-640q-30 4-32 32v736h704v-32zM704 160h64v384h-64v-384zM512 160h64v448h-64v-448z" />
<glyph unicode="&#xe0b4;" glyph-name="edit" d="M812 938q-84 48-168-2-36-22-56-54l-26-44-24-40-280-466q-4-8-8-18l-40-64h-2v-4l-16-26 14-6-14-246 56-32 214 136 16-8 98 162v2l296 494q50 82-2 162-22 34-58 54zM252 6l12 176 142-78zM470 178l-172 96 298 494 170-96zM816 754l-16-28-172 96 16 28q36 56 102 46 20-4 34-12 56-32 48-96-4-20-12-34z" />
<glyph unicode="&#xe0b8;" glyph-name="menu" d="M32 704h832q30 4 32 32-4 30-32 32h-832q-30-4-32-32 4-30 32-32zM32 448h576q30 4 32 32-4 30-32 32h-576q-30-4-32-32 4-30 32-32zM512 0h-480q-30-4-32-32 4-30 32-32h480q30 4 32 32-4 30-32 32zM864 256h-832q-30-4-32-32 4-30 32-32h832q30 4 32 32-4 30-32 32z" />
<glyph unicode="&#xe0ce;" glyph-name="user" d="M972 194q-34 32-320 92 120 64 164 230 16 60 16 118 0 248-158 306-56 20-130 20-242 0-280-216-8-50-8-110 0-170 102-286 36-40 78-62-290-64-320-92-54-50-52-144 2-54 28-90l94-14q130-10 360-10 176 0 288 6t138 12l24 6q50 70 14 170-14 42-38 64zM928 0h-768q-56 22-34 98 16 46 46 62 32 14 288 88l12 64v26q-102 50-138 194-14 52-14 100 0 202 122 248 44 16 102 16 190 0 218-176 6-40 6-88 0-146-86-244-32-32-66-50v-26l14-68q264-68 298-84 38-18 40-82 0-60-40-78z" />
<glyph unicode="&#xe0e2;" glyph-name="loggedin-user" d="M652 356q122 70 144 206 4 24 4 46 0 142-114 230-80 58-174 58-146 0-232-118-56-76-56-170 0-144 118-232 16-12 30-20-152-60-216-210-28-70-28-146v-64h64v64q0 154 122 250 86 70 198 70 154 0 250-122 70-86 70-198v-64h64v64q0 180-138 294-50 40-106 62zM288 608q0 120 98 186 58 38 126 38 120 0 186-98 38-58 38-126 0-120-98-186-58-38-126-38-120 0-186 98-38 58-38 126z" />
<glyph unicode="&#xe0eb;" glyph-name="settings" d="M512 608q-90 0-138-78-22-40-22-82 0-90 78-138 40-22 82-22 90 0 138 78 22 40 22 82 0 90-78 138-40 22-82 22zM512 352q-64 0-88 58-8 20-8 38 0 64 58 88 20 8 38 8 64 0 88-60 8-16 8-36 0-64-58-88-20-8-38-8zM960 544l-82 14q-12 36-30 72l48 66q38 38 8 82-4 6-8 10l-44 44q-38 38-82 8-6-4-10-8l-66-48q-36 18-72 30l-14 82q0 48-44 62-12 2-20 2h-64q-48 0-62-44-2-12-2-20l-14-82q-36-12-72-30l-66 48q-38 38-82 8-6-4-10-8l-44-44q-38-38-8-82 4-6 8-10l48-66q-18-36-30-72l-82-14q-48 0-62-44-2-12-2-20v-64q0-48 44-62 12-2 20-2l82-14q12-36 30-72l-48-66q-38-38-8-82 4-6 8-10l44-44q38-38 82-8 6 4 10 8l66 48q36-18 72-30l14-82q0-48 44-62 12-2 20-2h64q48 0 62 44 2 12 2 20l14 82q36 12 72 30l66-48q38-38 82-8 6 4 10 8l44 44q38 38 8 82-4 6-8 10l-48 66q18 36 30 72l82 14q48 0 62 44 2 12 2 20v64q0 48-44 62-12 2-20 2zM928 416l-100-16q-14-80-58-140l58-84q22-22 0-44t-44 0l-84 58q-68-46-140-58l-16-100q-4-30-32-32-30 4-32 32l-16 100q-74 12-140 58l-84-58q-22-22-44 0t0 44l58 84q-46 62-58 140l-100 16q-30 4-32 32 4 30 32 32l100 16q14 80 58 140l-58 84q-22 22 0 44t44 0l84-58q68 46 140 58l16 100q4 30 32 32 30-4 32-32l16-100q74-12 140-58l84 58q22 22 44 0t0-44l-58-84q46-62 58-140l100-16q30-4 32-32-4-30-32-32z" />
<glyph unicode="&#xe12a;" glyph-name="add" d="M960 576h-320v320q0 48-44 62-12 2-20 2h-128q-48 0-62-44-2-12-2-20v-320h-320q-48 0-62-44-2-12-2-20v-128q0-48 44-62 12-2 20-2h320v-320q0-48 44-62 12-2 20-2h128q48 0 62 44 2 12 2 20v320h320q48 0 62 44 2 12 2 20v128q0 48-44 62-12 2-20 2zM960 416q-4-30-32-32h-352v-352q-4-30-32-32h-64q-30 4-32 32v352h-352q-30 4-32 32v64q4 30 32 32h352v352q4 30 32 32h64q30-4 32-32v-352h352q30-4 32-32v-64z" />
<glyph unicode="&#xe16f;" glyph-name="next" d="M726 470l-386 352q-22 20-42 0-18-22 0-42l360-332-360-332q-20-22 0-42 22-18 42 0l386 352q10 10 10 22-2 14-10 22z" />
<glyph unicode="&#xe171;" glyph-name="previous" d="M396 448l362 334q18 22 0 42-22 18-42 0l-388-352q-10-10-10-24 2-14 10-22l388-352q22-18 42 0 18 22 0 42z" />
<glyph unicode="&#xe178;" glyph-name="tick" d="M1014 760q-22 18-44 0l-618-618-296 294q-22 22-46 0-18-22 0-44l318-318q24-18 46 0l640 640q18 22 0 46z" />
<glyph unicode="&#xe179;" glyph-name="close" d="M556 480l396 394q18 22 0 44-24 22-46 0l-394-394-394 394q-22 22-46 0-18-22 0-44l396-394-396-394q-18-22 0-46 24-18 46 0l394 396 394-396q22-18 44 0 22 24 0 46z" />
<glyph unicode="&#xe17b;" glyph-name="add-small" d="M960 448h-384v384q-4 30-32 32-30-4-32-32v-384h-384q-30-4-32-32 4-30 32-32h384v-384q4-30 32-32 30 4 32 32v384h384q30 4 32 32-4 30-32 32z" />
<glyph unicode="&#xe186;" glyph-name="h-ellipses" d="M128 576q-78 0-114-70-14-28-14-58 0-78 70-114 28-14 58-14 78 0 114 70 14 28 14 58 0 78-70 114-28 14-58 14zM128 384q-48 0-62 44-2 12-2 20 0 48 44 62 12 2 20 2 48 0 62-44 2-12 2-20 0-48-44-62-12-2-20-2zM512 576q-78 0-114-70-14-28-14-58 0-78 70-114 28-14 58-14 78 0 114 70 14 28 14 58 0 78-70 114-28 14-58 14zM512 384q-48 0-62 44-2 12-2 20 0 48 44 62 12 2 20 2 48 0 62-44 2-12 2-20 0-48-44-62-12-2-20-2zM896 576q-78 0-114-70-14-28-14-58 0-78 70-114 28-14 58-14 78 0 114 70 14 28 14 58 0 78-70 114-28 14-58 14zM896 384q-48 0-62 44-2 12-2 20 0 48 44 62 12 2 20 2 48 0 62-44 2-12 2-20 0-48-44-62-12-2-20-2z" />
<glyph unicode="&#xe189;" glyph-name="notification" d="M960 128l-64 90q-64 104-64 168v254q0 154-122 250-86 70-198 70-154 0-250-122-70-88-70-198v-252q0-46-32-111t-64-107l-32-42h294q0-4-2-10-4-14-4-22 0-90 78-138 40-22 82-22 90 0 138 78 22 40 22 82 0 6-6 32h294zM256 640q0 132 108 208 68 48 148 48 132 0 208-108 48-68 48-148v-64h-512v64zM256 512h512v-64h-512v64zM512 0q-64 0-88 58-8 20-8 38t6 32h180q6-16 6-32 0-64-58-88-20-8-38-8zM192 192l36 70q26 66 28 122h512q0-44 16-92t32-74l16-26h-640z" />
<glyph unicode="&#xe192;" glyph-name="clock" d="M768 448h-256v256q-4 30-32 32-30-4-32-32v-288q0-12 6-18 12-12 26-14h288q30 4 32 32-4 30-32 32zM512 960q-222 0-374-164-138-148-138-348 0-222 164-374 148-138 348-138 222 0 374 164 138 148 138 348 0 222-164 374-148 138-348 138zM512 0q-202 0-336 152-112 128-112 296 0 202 152 336 128 112 296 112 202 0 336-152 112-128 112-296 0-202-152-336-128-112-296-112z" />
<glyph unicode="&#xe1ab;" glyph-name="back" d="M928 448h-750l292 266q22 22 0 44-22 18-44 0l-352-318-2-4q-6-10-8-16v-4q2-12 8-20l4-4 350-316q22-22 44 0 20 20 0 44l-292 266h750q26 6 32 30-4 30-32 32z" />
<glyph unicode="&#xe211;" glyph-name="time" d="M864 0h-96v288l-2 4q0 8-52 47t-102 73l-52 36 176 128q28 22 30 28 2 2 2 4v288h96q30 4 32 32-4 30-32 32h-704q-30-4-32-32 4-30 32-32h96v-292q4-16 208-156l-180-130q-26-20-28-26v-292h-96q-30-4-32-32 4-30 32-32h704q30 4 32 32-4 30-32 32zM320 620v276h384v-276l-192-138zM704 0h-384v276l192 138 192-138v-276z" />
<glyph unicode="&#xe217;" glyph-name="calendar" d="M832 256h-192v-192h192v192zM768 128h-64v64h64v-64zM832 512h-192v-192h192v192zM768 384h-64v64h64v-64zM928 896h-224v64h-64v-64h-320v64h-64v-64h-192q-48 0-62-44-2-12-2-20v-832q0-48 44-62 12-2 20-2h832q48 0 62 44 2 12 2 20v832q0 52-14 60-8 4-18 4zM896 32q-4-30-32-32h-768q-30 4-32 32v608h832v-608zM896 704h-832v96q4 30 32 32h160v-64h64v64h320v-64h64v64h160q30-4 32-32v-96zM320 256h-192v-192h192v192zM256 128h-64v64h64v-64zM576 256h-192v-192h192v192zM512 128h-64v64h64v-64zM320 512h-192v-192h192v192zM256 384h-64v64h64v-64zM576 512h-192v-192h192v192zM512 384h-64v64h64v-64z" />
<glyph unicode="&#xe21a;" glyph-name="location" d="M576 896q-180 0-294-138-90-108-90-246 0-94 96-254t192-274l96-112 126 154q256 330 258 486 0 180-138 294-108 90-246 90zM256 496q0 164 122 264 88 72 198 72 154 0 250-126 70-92 70-210 0-160-280-512l-40-48-116 148q-204 280-204 412zM576 704q-78 0-114-70-14-28-14-58 0-78 70-114 28-14 58-14 78 0 114 70 14 28 14 58 0 78-70 114-28 14-58 14zM576 512q-48 0-62 44-2 12-2 20 0 48 44 62 12 2 20 2 48 0 62-44 2-12 2-20 0-48-44-62-12-2-20-2z" />
<glyph unicode="&#xe289;" glyph-name="folder" d="M1022 614v4q-6 10-12 16l-2 2h-2q-4 2-6 2t-6 2h-98v192q0 48-44 62-12 2-20 2h-768q-48 0-62-44-2-12-2-20v-832q2-48 16-60 2-2 8-3t12-1h732l252 656q4 14 4 16-2 4-2 6zM64 800q4 30 32 32h704q30-4 32-32v-160h-544q-4-2-6-2h-4q-4-2-6-4l-4-2-8-8v-2q0-2-1-2h-1v-2l-194-486v668zM716 0h-620q-6 0-16 4l228 572h638z" />
<glyph unicode="&#xe2ac;" glyph-name="email" d="M1022 832v2q-2 12-8 20v2h-2q-8 4-18 8h-964q-12-4-18-8h-2v-4q-8-8-8-18v-770q6-26 30-32h958q30 4 32 32v768zM900 800l-388-312-388 312h776zM960 128q-6-26-32-32h-832q-26 6-32 32v638l424-340h2q12-10 22-10 12 2 22 10l2 2 424 338v-638z" />
<glyph unicode="&#xe2b6;" glyph-name="info" d="M496 332q-34-6-38-38 6-32 38-38 28 0 36 28 2 6 2 10-6 32-38 38zM512 960q-230 0-382-150-130-130-130-298 0-194 164-328 14-12 28-22v-226l262 130q10 0 29-1t29-1q230 0 382 150 130 130 130 298 0 196-164 328-148 120-348 120zM512 128h-64l-192-96v160l-72 76q-118 144-120 244 0 174 152 288 128 96 296 96 210 0 344-138 104-108 104-246 0-174-152-288-128-96-296-96zM504 736q-96-2-152-72l36-36q42 54 110 56 70 0 80-52 2-6 2-12 0-36-56-74-58-42-68-74-2-12-2-22 2-36 28-58l42 20q-16 12-18 32 0 32 54 70 64 44 76 82 4 16 4 32 0 72-76 98-28 10-60 10z" />
</font>
</defs>
</svg>
